Coordinates
version=1
nRows=9
nColumns=36
inDegrees=yes

Units are S.I. units (second, meters, Newtons, ...)
If the header above contains a line with 'inDegrees', this indicates whether rotational values are in degrees (yes) or radians (no).

endheader
time	pelvis_tilt	pelvis_list	pelvis_rotation	pelvis_tx	pelvis_ty	pelvis_tz	hip_flexion_r	hip_adduction_r	hip_rotation_r	knee_angle_r	knee_angle_r_beta	ankle_angle_r	subtalar_angle_r	mtp_angle_r	hip_flexion_l	hip_adduction_l	hip_rotation_l	knee_angle_l	knee_angle_l_beta	ankle_angle_l	subtalar_angle_l	mtp_angle_l	lumbar_extension	lumbar_bending	lumbar_rotation	arm_flex_r	arm_add_r	arm_rot_r	elbow_flex_r	pro_sup_r	arm_flex_l	arm_add_l	arm_rot_l	elbow_flex_l	pro_sup_l
      1.86000000	    -20.34032298	     -3.16700053	      1.44960544	     -0.32114073	      0.64559918	     -0.55838093	     80.88562870	      6.25719386	     -0.94418626	     95.92579820	      1.67422102	     26.04638899	    -14.62981077	     -7.49945221	     87.33713319	     -8.74671853	      7.04254890	     88.21373138	      1.53962006	     25.67633928	     -1.23958329	     -7.49945221	    -28.84403146	      9.73511380	     11.36513291	    108.84459472	    -36.57706304	     64.15480321	     39.48347250	    108.58370121	    111.54350191	    -45.37945351	     59.25495825	     34.24942654	    110.34753861
      1.87000000	    -20.70977385	     -3.30380196	      1.25827787	     -0.32148116	      0.65092302	     -0.55764320	     80.45482818	      6.85123710	     -0.74119309	     94.52180384	      1.64971669	     25.18971829	    -15.70603184	     -7.49949142	     86.95049047	     -9.08356892	      6.99446679	     87.04485609	      1.51921934	     25.24586584	     -1.34106004	     -7.49949142	    -28.93680908	      9.52229119	     11.59529832	    110.75082888	    -36.44134512	     66.49254638	     40.13202964	    108.50643493	    115.60410720	    -45.40819819	     68.60193524	     31.14680263	    110.39917227
      1.88000000	    -21.16606770	     -3.33402563	      1.05767710	     -0.32164772	      0.65650589	     -0.55711254	     80.05080223	      7.27991548	     -0.46379132	     93.08047492	      1.62456076	     24.96619545	    -15.81873954	     -7.49953272	     86.56075365	     -9.45121537	      6.73548721	     85.78155368	      1.49717055	     25.09431648	     -1.11996117	     -7.49953272	    -28.80573389	      9.19143506	     11.96061394	    111.88194239	    -36.62252244	     67.14328397	     40.70461207	    108.09232882	    117.83109619	    -45.05663737	     73.66093140	     28.81866933	    109.43989123
      1.89000000	    -21.74169912	     -3.39586203	      0.77110036	     -0.32147895	      0.66226140	     -0.55658061	     79.70407554	      7.74850027	     -0.19733260	     91.54679131	      1.59779293	     24.82192760	    -15.71573301	     -7.49953583	     86.19731849	     -9.81792548	      6.60674064	     84.45373415	      1.47399573	     24.92705062	     -1.03038238	     -7.49953583	    -28.48478212	      9.04758158	     12.15293340	    112.54030112	    -36.47472299	     67.19774754	     41.03794285	    108.08568592	    118.33814488	    -45.70839354	     73.88599931	     28.07895093	    109.31925753
      1.90000000	    -22.18130296	     -3.50105797	      0.49980275	     -0.32133156	      0.66821167	     -0.55599252	     79.18720532	      8.27147235	      0.02970182	     89.89674329	      1.56899416	     23.86144052	    -16.79138527	     -7.49957373	     85.71447552	    -10.11813047	      6.55791563	     83.15173287	      1.45127152	     24.58524525	     -1.23288277	     -7.49957373	    -28.27031995	      8.91052651	     12.65375531	    113.84700610	    -37.13430458	     69.82932937	     41.39566499	    107.87252347	    120.02216569	    -45.66682667	     80.33995333	     25.08523955	    108.95965221
      1.91000000	    -22.65112228	     -3.61499206	      0.21800336	     -0.32093391	      0.67427285	     -0.55531216	     78.64341025	      8.84224560	      0.28688472	     88.28222511	      1.54081550	     23.58422801	    -17.06931099	     -7.49961093	     85.19138376	    -10.37694446	      6.62045202	     81.75267223	      1.42685330	     24.41758600	     -1.12044140	     -7.49961093	    -28.01397739	      8.77626829	     12.78659696	    114.22056680	    -37.66663759	     70.61763681	     41.87673374	    107.50752054	    121.07566741	    -46.76192445	     84.20105156	     23.79932246	    108.24938555
      1.92000000	    -23.16419586	     -3.60886851	      0.00430601	     -0.32037062	      0.68042952	     -0.55520287	     78.13427249	      9.17352489	      0.66232247	     86.68084533	      1.51286615	     23.46517731	    -16.94333019	     -7.49961266	     84.64542645	    -10.47806000	      6.51609287	     80.31993092	      1.40184725	     24.25640313	     -0.98599881	     -7.49961266	    -27.60933455	      8.69716385	     12.87880804	    114.18279992	    -38.35022890	     70.77783812	     42.00033263	    107.51952533	    120.76950121	    -48.22394184	     84.42604118	     23.15793747	    108.18708121
      1.93000000	    -23.41849989	     -3.64291382	     -0.15035080	     -0.31960448	      0.68694915	     -0.55537527	     77.34823279	      9.38003588	      0.87967964	     85.06426856	      1.48465156	     22.68122337	    -17.63539088	     -7.49965348	     83.89432723	    -10.55004004	      6.41285308	     78.99164726	      1.37866433	     23.76100054	     -1.17298811	     -7.49965348	    -27.62529530	      8.72934847	     12.77600297	    114.91567847	    -39.53971479	     73.48686406	     42.80461408	    107.48211383	    121.48677508	    -50.44923373	     88.84400875	     22.54974119	    107.65658622
      1.94000000	    -23.84689465	     -3.61395151	     -0.39802124	     -0.31852245	      0.69328288	     -0.55541907	     76.68354824	      9.79551019	      1.42407720	     83.42151505	      1.45598010	     22.51682678	    -17.58391671	     -7.49965626	     83.23060040	    -10.63971343	      6.28866894	     77.63024781	      1.35490342	     23.58599074	     -1.19908523	     -7.49965626	    -27.25839406	      8.74811569	     12.68736395	    114.39504163	    -40.76230545	     73.87984077	     43.38695855	    107.53644919	    120.58275643	    -52.87773851	     89.34893553	     22.05905386	    107.63948501
